<svg width="24" height="24" viewBox="0 0 24 24" fill="none" xmlns="http://www.w3.org/2000/svg">
<path d="M10.5938 2.09062C7.57504 2.50312 4.98285 4.05469 3.41253 6.39844C2.69535 7.46719 2.21253 8.76562 2.05785 10.05C1.98285 10.6922 2.02972 11.9812 2.1516 12.5625C2.51253 14.2406 3.22035 15.5859 4.40628 16.8422C5.85003 18.3656 7.86566 19.4297 10.0688 19.8234C10.8282 19.9594 11.911 20.0297 12.3844 19.9687C12.6 19.9453 12.8203 19.9219 12.8766 19.9219H12.9844V21.4969C12.9844 22.8609 12.9938 23.0672 13.0547 23.0484C13.1485 23.0109 14.7938 21.9422 15.3188 21.5766C18.6094 19.2844 20.9438 16.2375 21.7078 13.2469C22.1438 11.5406 22.0641 9.71719 21.4828 8.15625C20.2547 4.84687 17.0203 2.47969 13.1625 2.0625C12.5344 1.99687 11.1891 2.01094 10.5938 2.09062ZM12.7266 4.03594C15.3657 4.26094 17.6063 5.51719 18.9235 7.50937C19.9078 9 20.2172 10.6922 19.8282 12.4734C19.561 13.7109 18.8813 15.0328 17.8594 16.3125C17.3672 16.9266 16.275 18.0234 15.5625 18.6187L15.0235 19.0687L15.0094 18.3187C14.9953 17.5687 14.9953 17.5687 14.8922 17.5922C14.4657 17.6953 13.2422 17.9109 12.8203 17.9578C11.7797 18.0703 10.4578 17.9344 9.3516 17.6016C8.64378 17.3906 7.53753 16.8516 6.93753 16.4203C6.3891 16.0266 5.6016 15.2437 5.23597 14.7375C4.04066 13.05 3.69847 11.0156 4.29847 9.12187C5.16566 6.37031 7.93597 4.32187 11.1844 4.04062C11.8453 3.97969 12.0891 3.97969 12.7266 4.03594Z" fill="white"/>
</svg>
