<svg width="24" height="24" viewBox="0 0 24 24" fill="none" xmlns="http://www.w3.org/2000/svg">
<g clip-path="url(#clip0_121_2348)">
<path d="M11.6484 0.346874C11.5734 0.379686 9.2203 2.05781 6.42186 4.07344C0.998425 7.98281 0.853113 8.09531 0.567175 8.67656C0.23905 9.34687 0.262488 8.77969 0.243738 16.1016C0.234363 21.0187 0.243738 22.7766 0.281238 22.9641C0.360925 23.325 0.674988 23.6391 1.03593 23.7187C1.21874 23.7562 2.33436 23.7656 5.18436 23.7562L9.07968 23.7422L9.30468 23.6016C9.47343 23.4984 9.57186 23.3906 9.66561 23.2078L9.79686 22.9594V20.3719C9.79686 17.5594 9.80624 17.4281 10.0641 16.9547C10.2469 16.6266 10.6312 16.2562 10.9828 16.0875C12.15 15.5109 13.4812 16.0359 13.9734 17.2734L14.0859 17.5547L14.1094 20.325L14.1328 23.0906L14.2594 23.2875C14.3297 23.3906 14.4891 23.5406 14.6109 23.6109L14.8359 23.7422L18.8156 23.7562C23.25 23.7703 23.1234 23.7797 23.4515 23.4609C23.8219 23.1 23.7891 23.7937 23.7891 16.2422V9.49219L23.6859 9.16406C23.5453 8.71406 23.2922 8.31094 22.95 7.97812C22.6359 7.67344 12.6516 0.454685 12.3937 0.346874C12.2016 0.267185 11.8359 0.262499 11.6484 0.346874ZM16.8281 5.94375C20.7703 8.80781 21.6 9.43125 21.6891 9.58594L21.7969 9.77344V15.7828V21.7969H18.9375H16.0781V19.6219C16.0781 17.475 16.0781 17.4422 15.9656 17.0016C15.5016 15.1828 13.8797 13.9219 12.0047 13.9219C11.3109 13.9219 10.8187 14.0344 10.1953 14.3391C9.11718 14.8687 8.32968 15.8344 8.03436 17.0016C7.92186 17.4422 7.92186 17.475 7.92186 19.5984V21.75H5.06249H2.20311V15.7359V9.72656L2.31093 9.53906C2.39061 9.39375 2.66249 9.17812 3.46874 8.59219C9.38436 4.32187 11.9391 2.49375 12 2.48906C12.0375 2.48906 14.2125 4.04531 16.8281 5.94375Z" fill="white"/>
</g>
<defs>
<clipPath id="clip0_121_2348">
<rect width="24" height="24" fill="white"/>
</clipPath>
</defs>
</svg>
