<svg width="24" height="24" viewBox="0 0 24 24" fill="none" xmlns="http://www.w3.org/2000/svg">
<path d="M6.72654 3.05156C4.72029 3.34688 3.01404 4.73906 2.32029 6.65625C2.02967 7.46719 1.93592 8.53594 2.08592 9.38906C2.57342 12.1922 5.52654 15.8953 10.3125 19.7109C10.739 20.0531 11.2922 20.4797 11.5453 20.6672L12.0047 21.0094L12.7172 20.4703C15.4078 18.4406 17.8875 16.0969 19.4859 14.0766C20.8265 12.3844 21.6797 10.7438 21.914 9.38906C22.0031 8.86875 22.0031 8.09063 21.914 7.56563C21.7125 6.41719 21.2062 5.44688 20.3719 4.6125C18.9234 3.16875 16.9078 2.6625 14.8594 3.23438C13.95 3.4875 12.7875 4.20938 12.1547 4.91719L12 5.08594L11.8031 4.87031C11.1515 4.17188 10.0406 3.4875 9.14061 3.23438C8.37654 3.02344 7.42967 2.94844 6.72654 3.05156ZM8.21717 5.09063C9.33279 5.34844 10.5515 6.19688 11.6719 7.5C11.8359 7.69219 11.9859 7.85156 12 7.85156C12.014 7.85156 12.1547 7.70156 12.3094 7.52344C12.75 7.0125 13.5375 6.28594 14.0062 5.95313C14.8828 5.33438 15.5672 5.0625 16.364 5.025C17.0015 4.99688 17.4515 5.09063 18.0234 5.36719C19.2469 5.9625 19.9828 7.13438 19.9828 8.48438C19.9828 9.03281 19.9172 9.34688 19.664 10.0078C18.8531 12.1219 16.1578 15.1875 12.5719 18.0656L12 18.525L11.3344 17.9859C8.76092 15.9281 6.52967 13.6266 5.26873 11.7375C4.29842 10.2844 3.89061 9.075 4.03123 8.05313C4.22811 6.61875 5.27342 5.44688 6.67498 5.10469C7.10154 4.99688 7.78123 4.99219 8.21717 5.09063Z" fill="white"/>
</svg>
