<svg width="24" height="24" viewBox="0 0 24 24" fill="none" xmlns="http://www.w3.org/2000/svg">
<path d="M2.32042 6.65625C3.01417 4.73906 4.72042 3.34688 6.72667 3.05156C7.42979 2.94844 8.37667 3.02344 9.14073 3.23438C10.0407 3.4875 11.1517 4.17188 11.8032 4.87031L12.0001 5.08594L12.1548 4.91719C12.7876 4.20938 13.9501 3.4875 14.8595 3.23438C16.9079 2.6625 18.9235 3.16875 20.372 4.6125C21.2064 5.44688 21.7126 6.41719 21.9142 7.56563C22.0032 8.09063 22.0032 8.86875 21.9142 9.38906C21.6798 10.7438 20.8267 12.3844 19.486 14.0766C17.8876 16.0969 15.4079 18.4406 12.7173 20.4703L12.0048 21.0094L11.5454 20.6672C11.2923 20.4797 10.7392 20.0531 10.3126 19.7109C5.52667 15.8953 2.57354 12.1922 2.08604 9.38906C1.93604 8.53594 2.02979 7.46719 2.32042 6.65625Z" fill="white"/>
</svg>
